<?xml version="1.0" encoding="UTF-8"?>
<svg id="Layer_1" data-name="Layer 1" xmlns="http://www.w3.org/2000/svg" viewBox="0 0 1742 795.66">
  <defs>
    <style>
      .cls-1 {
        letter-spacing: 0em;
      }

      .cls-2, .cls-3 {
        fill: #fff;
      }

      .cls-2, .cls-4 {
        font-size: 25px;
      }

      .cls-2, .cls-5, .cls-6 {
        font-family: SpaceGrotesk-Light, 'Space Grotesk';
        font-variation-settings: 'wght' 300;
        font-weight: 300;
      }

      .cls-7 {
        letter-spacing: -.03em;
      }

      .cls-8 {
        letter-spacing: -.03em;
      }

      .cls-9 {
        letter-spacing: -.03em;
      }

      .cls-10 {
        letter-spacing: -.01em;
      }

      .cls-4 {
        font-family: SpaceGrotesk-Medium, 'Space Grotesk';
        font-variation-settings: 'wght' 500;
        font-weight: 500;
      }

      .cls-11, .cls-12, .cls-13, .cls-14 {
        fill: none;
      }

      .cls-11, .cls-13, .cls-14 {
        stroke: #fff;
        stroke-miterlimit: 10;
      }

      .cls-15 {
        letter-spacing: -.03em;
      }

      .cls-16 {
        letter-spacing: -.02em;
      }

      .cls-5 {
        fill: #4d4d4d;
      }

      .cls-5, .cls-6 {
        font-size: 12px;
      }

      .cls-17 {
        letter-spacing: 0em;
      }

      .cls-18, .cls-6 {
        fill: #1a1a1a;
      }

      .cls-13 {
        stroke-width: 1.5px;
      }

      .cls-14 {
        stroke-width: 2px;
      }

      .cls-19 {
        fill: #b3b3b3;
      }
    </style>
  </defs>
  <rect class="cls-3" x="958.2" y="664.45" width="217.86" height="22.53"/>
  <g>
    <polyline class="cls-13" points="1741 .53 1741 11.53 1730 11.53"/>
    <line class="cls-13" x1="1730" y1=".53" x2="1741" y2="11.53"/>
  </g>
  <text class="cls-2" transform="translate(934.43 651.42)"><tspan x="0" y="0">Hi</tspan><tspan class="cls-15" x="22.3" y="0">,</tspan><tspan class="cls-17" x="27.3" y="0" xml:space="preserve"> I’m Francise</tspan><tspan class="cls-15" x="175.05" y="0">.</tspan><tspan class="cls-10" x="0" y="32.74">A</tspan><tspan x="15.35" y="32.74" xml:space="preserve">                                    based in London</tspan><tspan class="cls-15" x="447.87" y="32.74">.</tspan></text>
  <text class="cls-5" transform="translate(1642.36 590.97)"><tspan class="cls-7" x="0" y="0">.</tspan><tspan x="2.4" y="0" xml:space="preserve"> 024</tspan></text>
  <text class="cls-5" transform="translate(292.28 590.74)"><tspan x="0" y="0" xml:space="preserve">ANIMATION     </tspan><tspan class="cls-9" x="77.42" y="0" xml:space="preserve"> -</tspan><tspan class="cls-1" x="85.37" y="0" xml:space="preserve">      DESIGN     </tspan><tspan class="cls-9" x="160.23" y="0" xml:space="preserve"> -</tspan><tspan x="168.18" y="0" xml:space="preserve">      3D</tspan></text>
  <g>
    <polyline class="cls-14" points="1741 574.4 1741 590.74 1724.67 590.74"/>
    <polyline class="cls-14" points="1724.67 293.08 1741 293.08 1741 309.42"/>
  </g>
  <g>
    <polyline class="cls-14" points="1 574.4 1 590.74 17.33 590.74"/>
    <polyline class="cls-14" points="17.33 293.08 1 293.08 1 309.42"/>
  </g>
  <rect class="cls-19" x="1385.97" y="791.74" width="3.93" height="3.93"/>
  <rect class="cls-19" x="936.35" y="282.48" width="3.93" height="3.93"/>
  <rect class="cls-19" x="947.07" y="282.48" width="3.93" height="3.93"/>
  <text class="cls-4" transform="translate(959.8 684.35)"><tspan x="0" y="0">MOTION DESIGNER</tspan></text>
  <rect class="cls-12" x="935.43" y="293.08" width="452.5" height="297.65"/>
  <line class="cls-11" x1="1387.94" y1="441.91" x2="1261.04" y2="441.91"/>
  <g>
    <line class="cls-11" x1="1151.81" y1="441.91" x2="1171.56" y2="441.91"/>
    <line class="cls-11" x1="1161.68" y1="432.04" x2="1161.68" y2="451.78"/>
  </g>
  <rect class="cls-11" x="935.43" y="293.08" width="452.5" height="297.65"/>
  <g>
    <polyline class="cls-11" points="1069.44 426.8 1062.33 426.8 1062.33 457.02 1069.44 457.02"/>
    <polyline class="cls-11" points="1253.93 457.02 1261.04 457.02 1261.04 426.8 1253.93 426.8"/>
  </g>
  <line class="cls-11" x1="1062.33" y1="441.91" x2="935.43" y2="441.91"/>
  <rect class="cls-3" x="1640.13" y="434.4" width="100.87" height="13.78"/>
  <rect class="cls-3" x="1" y="434.4" width="28.74" height="13.78"/>
  <text class="cls-6" transform="translate(1643.13 445.84)"><tspan x="0" y="0">CN</tspan><tspan class="cls-8" x="15.62" y="0" xml:space="preserve"> -</tspan><tspan class="cls-16" x="23.57" y="0"> </tspan><tspan x="26.38" y="0">TER.21</tspan></text>
  <rect class="cls-18" x="1732.87" y="439.95" width="3.93" height="3.93"/>
  <rect class="cls-18" x="7.2" y="439.95" width="3.93" height="3.93"/>
  <g>
    <rect class="cls-3" x="1424" y="434.4" width="13.78" height="13.78" transform="translate(1872.18 -989.6) rotate(90)"/>
    <polygon points="1427.87 441.29 1432.4 443.91 1432.4 438.67 1427.87 441.29"/>
  </g>
</svg>