<?xml version="1.0" encoding="UTF-8"?>
<svg id="Layer_1" data-name="Layer 1" xmlns="http://www.w3.org/2000/svg" viewBox="0 0 1742 513.19">
  <defs>
    <style>
      .cls-1 {
        letter-spacing: 0em;
      }

      .cls-2, .cls-3 {
        fill: #fff;
      }

      .cls-2, .cls-4 {
        font-size: 25px;
      }

      .cls-2, .cls-5, .cls-6 {
        font-family: SpaceGrotesk-Light, 'Space Grotesk';
        font-variation-settings: 'wght' 300;
        font-weight: 300;
      }

      .cls-7 {
        letter-spacing: -.03em;
      }

      .cls-8 {
        letter-spacing: -.03em;
      }

      .cls-9 {
        letter-spacing: -.03em;
      }

      .cls-10 {
        letter-spacing: -.01em;
      }

      .cls-4 {
        font-family: SpaceGrotesk-Medium, 'Space Grotesk';
        font-variation-settings: 'wght' 500;
        font-weight: 500;
      }

      .cls-11, .cls-12, .cls-13 {
        fill: none;
      }

      .cls-11, .cls-13 {
        stroke: #fff;
        stroke-miterlimit: 10;
      }

      .cls-14 {
        letter-spacing: -.03em;
      }

      .cls-15 {
        letter-spacing: -.02em;
      }

      .cls-5 {
        fill: #4d4d4d;
      }

      .cls-5, .cls-6 {
        font-size: 12px;
      }

      .cls-16 {
        letter-spacing: 0em;
      }

      .cls-17, .cls-6 {
        fill: #1a1a1a;
      }

      .cls-13 {
        stroke-width: 2px;
      }

      .cls-18 {
        fill: #b3b3b3;
      }
    </style>
  </defs>
  <rect class="cls-3" x="958.2" y="381.97" width="217.86" height="22.53"/>
  <text class="cls-2" transform="translate(934.43 368.94)"><tspan x="0" y="0">Hi</tspan><tspan class="cls-14" x="22.3" y="0">,</tspan><tspan class="cls-16" x="27.3" y="0" xml:space="preserve"> I’m Francise</tspan><tspan class="cls-14" x="175.05" y="0">.</tspan><tspan class="cls-10" x="0" y="32.74">A</tspan><tspan x="15.35" y="32.74" xml:space="preserve">                                    based in London</tspan><tspan class="cls-14" x="447.87" y="32.74">.</tspan></text>
  <text class="cls-5" transform="translate(1642.36 308.49)"><tspan class="cls-7" x="0" y="0">.</tspan><tspan x="2.4" y="0" xml:space="preserve"> 024</tspan></text>
  <text class="cls-5" transform="translate(292.28 308.26)"><tspan x="0" y="0" xml:space="preserve">ANIMATION     </tspan><tspan class="cls-9" x="77.42" y="0" xml:space="preserve"> -</tspan><tspan class="cls-1" x="85.37" y="0" xml:space="preserve">      DESIGN     </tspan><tspan class="cls-9" x="160.23" y="0" xml:space="preserve"> -</tspan><tspan x="168.18" y="0" xml:space="preserve">      3D</tspan></text>
  <g>
    <polyline class="cls-13" points="1741 291.93 1741 308.26 1724.67 308.26"/>
    <polyline class="cls-13" points="1724.67 10.61 1741 10.61 1741 26.94"/>
  </g>
  <g>
    <polyline class="cls-13" points="1 291.93 1 308.26 17.33 308.26"/>
    <polyline class="cls-13" points="17.33 10.61 1 10.61 1 26.94"/>
  </g>
  <rect class="cls-18" x="1385.97" y="509.26" width="3.93" height="3.93"/>
  <rect class="cls-18" x="936.35" width="3.93" height="3.93"/>
  <rect class="cls-18" x="947.07" width="3.93" height="3.93"/>
  <text class="cls-4" transform="translate(959.8 401.87)"><tspan x="0" y="0">MOTION DESIGNER</tspan></text>
  <rect class="cls-12" x="935.43" y="10.61" width="452.5" height="297.65"/>
  <line class="cls-11" x1="1387.94" y1="159.43" x2="1261.04" y2="159.43"/>
  <g>
    <line class="cls-11" x1="1151.81" y1="159.43" x2="1171.56" y2="159.43"/>
    <line class="cls-11" x1="1161.68" y1="149.56" x2="1161.68" y2="169.3"/>
  </g>
  <rect class="cls-11" x="935.43" y="10.61" width="452.5" height="297.65"/>
  <g>
    <polyline class="cls-11" points="1069.44 144.32 1062.33 144.32 1062.33 174.54 1069.44 174.54"/>
    <polyline class="cls-11" points="1253.93 174.54 1261.04 174.54 1261.04 144.32 1253.93 144.32"/>
  </g>
  <line class="cls-11" x1="1062.33" y1="159.43" x2="935.43" y2="159.43"/>
  <rect class="cls-3" x="1640.13" y="151.93" width="100.87" height="13.78"/>
  <rect class="cls-3" x="1" y="151.93" width="28.74" height="13.78"/>
  <text class="cls-6" transform="translate(1643.13 163.36)"><tspan x="0" y="0">CN</tspan><tspan class="cls-8" x="15.62" y="0" xml:space="preserve"> -</tspan><tspan class="cls-15" x="23.57" y="0"> </tspan><tspan x="26.38" y="0">TER.21</tspan></text>
  <rect class="cls-17" x="1732.87" y="157.47" width="3.93" height="3.93"/>
  <rect class="cls-17" x="7.2" y="157.47" width="3.93" height="3.93"/>
  <g>
    <rect class="cls-3" x="1424" y="151.93" width="13.78" height="13.78" transform="translate(1589.7 -1272.07) rotate(90)"/>
    <polygon points="1427.87 158.82 1432.4 161.43 1432.4 156.2 1427.87 158.82"/>
  </g>
</svg>